<?xml version='1.0' encoding='utf-8'?>
<svg xmlns="http://www.w3.org/2000/svg" version="1.1" width="600px" height="976px" viewBox="0 0 600 976"> <g id="layer1"> <g style="fill:rgb(139,220,255); fill-opacity:1.0; stroke-linejoin: miter"> <path d="M251.57245,439.49188Q236.55237,439.65378,225.74649,450.01358Q215.11316,460.76584,214.80489,475.87616Q214.90929,490.99524,225.36914,501.88385Q236.2434,512.5348,251.2092,512.78186Q266.47156,512.60236,277.18228,502.23132Q287.80212,491.46902,288.0944,476.3587Q287.97424,461.23938,277.50052,450.36075Q266.61145,439.72037,251.64536,439.49216"/> </g> <g style="fill:rgb(7,30,2); fill-opacity:0.13725491; stroke-linejoin: miter"> <path d="M251.5574,443.98267Q238.38055,444.11606,228.87108,453.24054Q219.5115,462.79025,219.29565,475.91986Q219.4366,489.28943,228.56429,498.72778Q238.11923,508.0821,251.24861,508.2911Q264.6183,508.14362,274.05142,499.01068Q283.40125,489.4514,283.6036,476.3216Q283.4491,462.95212,274.31158,453.52325Q264.85632,444.27573,251.87073,443.98798"/> </g> <g style="fill:rgb(255,255,255); fill-opacity:0.1254902; stroke-linejoin: miter"> <path d="M251.46815,456.60275Q243.46692,456.70963,237.69778,462.26117Q232.03421,468.0798,231.91599,476.05576Q232.0011,484.1466,237.63864,489.95306Q243.37802,495.5307,251.38246,495.67014Q259.35812,495.61127,265.22168,489.99194Q270.8766,484.1663,270.9837,476.18912Q270.91702,468.21295,265.29517,462.35495Q259.60675,456.763,251.48792,456.6031"/> </g> <g style="fill:rgb(255,255,255); fill-opacity:0.07450981; stroke-linejoin: miter"> <path d="M251.57245,439.49188Q236.55237,439.65378,225.74649,450.01358Q215.11316,460.76584,214.80489,475.87616Q214.90929,490.99524,225.36914,501.88385Q236.2434,512.5348,251.2092,512.78186Q252.54276,512.7662,253.84158,512.6727L253.84218,512.6727L253.84218,439.58325L253.84279,439.58325Q252.75528,439.50906,251.64536,439.49216L251.57245,439.49188 Z"/> </g> <g style="fill:rgb(255,207,134); fill-opacity:1.0; stroke-linejoin: miter"> <path d="M251.41785,470.5991L246.23785,470.4961Q245.47014,470.50415,245.20831,470.70374Q244.81177,471.03015,245.02747,471.6499Q245.16586,472.07852,245.94955,472.6843Q245.23297,472.79886,244.983,473.11172Q244.75189,473.30957,244.33656,474.44263Q243.34152,474.7775,243.04669,475.1222Q242.70074,475.46167,242.78152,476.49243L242.10257,476.851Q241.70753,477.34808,241.6456,477.66382Q241.55917,478.01047,241.66113,478.42307Q241.74673,478.8874,242.40125,480.2661L242.68954,482.24905L243.58969,486.0715L244.66156,488.47253L246.3335,491.1189L255.36884,491.92383Q252.91681,488.37897,252.69446,486.54773Q252.50977,485.5618,252.57956,484.36603Q252.55637,483.99185,253.04228,480.87778Q253.11456,480.26218,253.0896,479.81122Q253.07442,479.41605,252.90768,479.01526L252.21274,477.75958Q252.1202,477.52783,252.11433,477.1771Q252.11462,476.8698,252.17902,476.4851Q252.5549,474.62628,252.55397,474.43695Q252.62653,473.82297,252.57585,473.21368Q252.52536,472.3748,252.08734,470.77267L251.41888,470.5993"/> </g> <g style="fill:rgb(182,60,20); fill-opacity:0.32941177; stroke-linejoin: miter"> <path d="M247.06021,474.88373Q247.31615,476.3575,247.32208,476.53622Q247.37491,477.0335,247.31616,477.30917Q247.20868,477.79388,246.81607,477.90286Q246.50998,478.0013,245.82664,477.69275Q246.68857,479.2246,246.6351,479.72684Q246.62328,480.05588,246.34659,480.3026Q245.85358,480.65903,245.62936,480.6075L245.67401,481.7226L246.8397,481.57224L247.58469,478.71896Q247.7232,478.05115,247.80746,477.72852Q247.88101,477.4413,247.96196,477.19818Q248.1785,476.49066,248.87793,475.4682L248.10078,475.32962L247.06384,474.88528"/> </g> <g style="fill:rgb(255,255,255); fill-opacity:1.0; stroke-linejoin: miter"> <path d="M255.15186,488.81934L245.49661,490.9966L247.29326,495.5716L255.96564,494.7571Q256.7315,495.01013,256.9029,494.8231Q257.2219,494.58374,256.8418,493.33194Q256.53723,492.23126,255.15665,488.8313"/> </g> <g style="fill:rgb(0,0,0); fill-opacity:1.0; stroke-linejoin: miter"> <path d="M257.0834,491.3484L245.66168,495.05704L245.66719,495.0993L250.4657,508.2305L250.46574,508.2305Q256.79745,508.081,262.32263,506.12558L262.3233,506.12558L257.09344,491.3766L257.0834,491.3484 Z"/> </g> <g> <g style="fill:rgb(0,0,0); fill-opacity:1.0; stroke-linejoin: miter"> <path d="M255.447,472.64697Q255.44945,472.6469,255.45215,472.6472L256.05054,472.70718Q256.07602,472.70972,256.07346,472.7352L255.67015,476.7585Q255.66788,476.7813,255.6473,476.78168Q255.64485,476.78174,255.64215,476.78143L255.04375,476.72144Q255.01826,476.71893,255.02083,476.69345L255.42415,472.6701Q255.42642,472.64734,255.447,472.64697 Z M262.00916,473.3045L262.63306,473.367Q262.6585,473.36957,262.65594,473.39505L262.25266,477.4184Q262.25037,477.44113,262.22977,477.44153Q262.22733,477.44156,262.22464,477.44128L261.60074,477.37875L262.00916,473.3045 Z M249.71046,470.014L249.10039,476.09998Q249.09811,476.12274,249.07753,476.1231Q249.07507,476.12314,249.07237,476.12286L248.47397,476.06287Q248.4485,476.0603,248.45105,476.03488L248.65399,474.01047L246.0057,473.745L245.69812,476.81342Q245.59729,477.81927,246.92143,477.952L250.21904,478.28256Q250.39809,478.3005,250.55476,478.29764Q251.55682,478.2793,251.64401,477.40945L252.35875,470.27948L249.71046,470.014 Z M253.9777,470.46002Q252.96893,470.4785,252.87923,471.37332L252.26788,477.472Q252.16705,478.47784,253.49121,478.61057L256.7888,478.94113Q256.96783,478.95908,257.1245,478.9562Q258.1266,478.93787,258.21378,478.06802L258.8251,471.96936Q258.9285,470.93805,257.60437,470.80533L254.30675,470.47476Q254.13155,470.4572,253.9777,470.46002 Z M259.76932,468.96472L258.74954,479.13766L263.37128,479.60098Q263.55035,479.61893,263.70703,479.61606Q264.70908,479.5977,264.79626,478.7279L265.40762,472.6292Q265.511,471.59793,264.18686,471.46515L262.21338,471.26736L262.41757,469.23022L259.76932,468.96472 Z M267.12997,471.77844Q266.1212,471.7969,266.0315,472.69174L265.72772,475.722Q265.62433,476.75327,266.9485,476.88602L268.89648,477.0813Q268.92197,477.08383,268.9194,477.1093L268.82242,478.07697Q268.82013,478.09973,268.79953,478.1001Q268.7971,478.10013,268.7944,478.09985L268.19598,478.0399Q268.1705,478.03732,268.17307,478.01187L268.2216,477.528L265.5733,477.26257L265.42014,478.7904Q265.3193,479.79626,266.64346,479.929L269.94107,480.25955Q270.12012,480.2775,270.2768,480.27463Q271.27884,480.2563,271.36603,479.38644L271.6736,476.31802Q271.77444,475.31216,270.45032,475.17944L268.50232,474.9842Q268.47684,474.9816,268.47937,474.95615L268.5764,473.98853Q268.57867,473.96576,268.59924,473.9654Q268.6017,473.96533,268.6044,473.96564L269.20282,474.02557Q269.22827,474.02814,269.2257,474.05362L269.1785,474.5247L271.82678,474.79016L271.9774,473.28778Q272.08075,472.25647,270.75662,472.12375L267.459,471.79318Q267.2838,471.7756,267.12997,471.77844 Z"/> </g> </g> <g style="fill:rgb(231,158,96); fill-opacity:1.0; stroke-linejoin: miter"> <path d="M248.36945,473.97137Q248.23708,473.98026,248.11037,474.1218Q247.91026,474.47873,247.87961,474.5182L247.55447,474.96988L247.48145,475.1012Q247.3977,475.31528,247.36705,475.35992L247.22585,475.54373Q247.08583,475.7926,246.90906,476.04095Q246.78716,476.3151,246.69882,476.9581Q246.68515,477.0696,246.69135,477.12726Q246.73955,477.34473,246.7333,477.36462Q246.73355,477.4419,246.7075,477.4879Q246.69893,477.50415,246.67535,477.52292L246.52676,477.62708L246.32681,477.7099Q245.99481,477.74258,245.9787,477.71356L247.4965,478.49188Q247.51677,478.45862,247.5388,478.36066Q247.66397,477.66614,247.70508,477.5785L248.03888,477.00708Q248.11269,476.83893,248.22449,476.6426Q248.36818,476.44452,248.44713,476.28278L248.59816,475.84045L248.65486,475.54123Q248.67921,475.302,248.68985,475.29218Q248.69884,475.25958,248.71362,475.23157L248.78137,475.1148Q248.80627,475.04672,248.82324,474.95953Q248.8503,474.8226,248.83615,474.6418L248.7913,474.33292Q248.7747,474.25293,248.74773,474.19937Q248.67235,474.00864,248.58693,473.97894Q248.57361,473.95084,248.3748,473.97104"/> </g> <g style="fill:rgb(255,207,134); fill-opacity:1.0; stroke-linejoin: miter"> <path d="M247.6382,471.5803Q247.62285,471.63574,247.59143,471.65918Q247.52107,471.70972,247.3198,471.7687L247.0368,472.03772L246.6823,472.2738Q246.39494,472.4858,246.24968,472.6959L246.07272,472.94537Q245.82524,473.39978,245.53322,473.80533L245.29962,474.3318L245.03346,474.87234Q244.97716,474.9962,244.9393,475.10373Q244.88318,475.26254,244.84818,475.41113L244.74706,475.94073L244.54346,476.7781Q244.47609,477.11533,244.4734,477.4491Q244.51152,478.6905,244.88994,479.31622Q244.9591,479.43082,244.98837,479.3982Q245.01596,479.38757,245.1315,479.11127Q245.16797,479.04813,245.23683,478.96616Q246.06892,478.18594,246.10158,478.0768L246.72063,477.08185Q246.72107,477.11743,246.88905,476.637Q246.93376,476.53088,247.01738,476.3946Q247.41194,475.78983,247.74385,475.3601Q247.84448,475.21442,247.92322,475.07867L248.27783,474.4609Q248.36012,474.29736,248.50417,473.95474Q248.53198,473.8761,248.54457,473.8061Q248.57648,473.5481,248.60081,473.43802Q248.62004,473.34634,248.6424,473.29285L247.64175,471.58636"/> </g> <g style="fill:rgb(255,207,134); fill-opacity:1.0; stroke-linejoin: miter"> <path d="M249.18526,472.04315L248.67671,472.43564Q248.10674,473.12204,247.71112,473.477Q246.60567,474.36386,245.95042,474.9763Q245.56125,475.34586,245.03038,476.07605Q244.63806,476.6617,244.28694,477.69553Q244.16869,478.09567,244.06212,478.64612L243.89789,479.5517Q243.87076,479.71152,243.88853,479.8424Q243.89473,479.9427,243.95924,479.9038Q244.04959,479.82724,244.32478,479.6842Q244.67647,479.56726,244.82,479.49536Q245.27031,479.27057,245.58209,479.08902Q245.85893,478.98645,246.39641,478.68884Q246.96835,478.4544,247.02304,478.4115Q247.15527,478.35547,247.43896,478.0518Q247.70198,477.8871,247.81346,477.78522Q247.93881,477.6796,248.052,477.52155L248.16069,477.29947L248.4735,476.85593Q248.70502,476.4702,248.69351,476.44147L248.8455,475.64066L249.00592,475.05548Q249.03906,474.92862,249.07834,474.6201L249.15268,474.3448Q249.30002,473.57343,249.3564,473.42328L249.18599,472.04907"/> </g> <g style="fill:rgb(0,0,0); fill-opacity:1.0; stroke-linejoin: miter"> <path d="M251.0226,466.4225Q250.4624,466.42365,250.0487,466.81348Q249.647,467.22107,249.63466,467.7811Q249.63855,468.35117,250.02477,468.7565Q250.4245,469.1555,250.99269,469.17145Q251.5529,469.17145,251.96756,468.78238Q252.37021,468.37543,252.38354,467.81546Q252.38068,467.2454,251.99538,466.8394Q251.5966,466.43973,251.02849,466.42255"/> </g> </g> </svg>